<?xml version="1.0" encoding="UTF-8"?>
<svg width="19px" height="64px" viewBox="0 0 19 64" version="1.1" xmlns="http://www.w3.org/2000/svg" xmlns:xlink="http://www.w3.org/1999/xlink">
    <g id="Blog" stroke="none" stroke-width="1" fill="none" fill-rule="evenodd">
        <g id="and" fill="#C1C7CD">
            <path d="M0.9609375,34.3664055 C0.9609375,35.0304713 1.38085518,35.3624992 2.22070312,35.3624992 C2.79492475,35.3624992 3.24023279,35.2335943 3.55664062,34.9757805 C3.86914219,34.7140604 4.02343752,34.3957042 4.01953125,34.0207024 L4.01953125,32.4386711 L3.99609375,32.4386711 C3.8867182,32.669141 3.34375488,32.9210916 2.3671875,33.1945305 C1.82421604,33.346875 1.453126,33.5089828 1.25390625,33.6808586 C1.05859277,33.8566407 0.9609375,34.0851541 0.9609375,34.3664055 Z M4.11914062,36.0597649 L4.11914062,35.3624992 L4.09570312,35.3624992 C3.97460877,35.5695315 3.74609543,35.7667952 3.41015625,35.9542961 C3.07421707,36.141797 2.65429939,36.2374992 2.15039062,36.2414055 C1.44726211,36.2414055 0.914064316,36.0695322 0.55078125,35.7257805 C0.183591914,35.3781225 0,34.94258 0,34.4191399 C0,33.8956997 0.162107754,33.4855476 0.486328125,33.1886711 C0.810548496,32.8917946 1.28710623,32.6632813 1.91601562,32.5031242 C2.89258301,32.2570293 3.47851465,32.0558594 3.67382812,31.8996086 C3.86523533,31.7433578 3.9609375,31.5441411 3.9609375,31.3019524 C3.9609375,31.0558574 3.85156359,30.8429689 3.6328125,30.6632805 C3.41406141,30.4835921 3.08008037,30.3937492 2.63085938,30.3937492 C1.78319889,30.3937492 1.26757904,30.8136669 1.08398438,31.6535149 L0.193359375,31.4015617 C0.298828652,30.8429652 0.55859168,30.3898447 0.97265625,30.0421867 C1.38672082,29.6945287 1.94530898,29.5207024 2.6484375,29.5207024 C3.35156602,29.5207024 3.9160135,29.7023412 4.34179688,30.0656242 C4.77148652,30.4289073 4.98437502,30.9992141 4.98046875,31.7765617 L4.98046875,36.0597649 L4.11914062,36.0597649 Z M6.89648438,36.0597649 L6.89648438,29.702343 L7.85742188,29.702343 L7.85742188,30.311718 L7.88085938,30.311718 C8.0566415,30.0812481 8.30859211,29.8917969 8.63671875,29.7433586 C8.96484539,29.5949204 9.30859195,29.5207024 9.66796875,29.5207024 C10.3554722,29.5207024 10.9101541,29.7316378 11.3320312,30.1535149 C11.7539084,30.575392 11.9628906,31.1515581 11.9589844,31.8820305 L11.9589844,36.0597649 L10.9863281,36.0597649 L10.9863281,32.1984367 C10.9863281,31.0148371 10.5000049,30.421093 9.52734375,30.4171867 C9.03124752,30.4171867 8.632814,30.5578103 8.33203125,30.8390617 C8.0312485,31.1203131 7.88085938,31.5089811 7.88085938,32.0050774 L7.88085938,36.0597649 L6.89648438,36.0597649 Z M18.1640625,36.0597649 L18.1640625,35.4503899 L18.140625,35.4503899 C17.9726554,35.6496096 17.7265641,35.8312484 17.4023438,35.9953117 C17.0781234,36.1593751 16.7031271,36.2414055 16.2773438,36.2414055 C15.4374958,36.2414055 14.7675806,35.936721 14.2675781,35.327343 C13.7675756,34.7179649 13.5175781,33.90352 13.5175781,32.8839836 C13.5175781,31.860541 13.7792943,31.0441429 14.3027344,30.4347649 C14.8261745,29.8253868 15.4687462,29.5207024 16.2304688,29.5207024 C16.988285,29.5207024 17.5917946,29.7843716 18.0410156,30.311718 L18.0703125,30.311718 L18.0703125,27.2999992 L19.0546875,27.2999992 L19.0546875,36.0597649 L18.1640625,36.0597649 Z M18.0703125,33.9503899 L18.0703125,31.9816399 C18.0703125,31.5832004 17.9218765,31.2199228 17.625,30.8917961 C17.3281235,30.5636695 16.9316431,30.4015617 16.4355469,30.405468 C15.8027312,30.405468 15.3222673,30.6222627 14.9941406,31.0558586 C14.666014,31.4933608 14.5019531,32.1027297 14.5019531,32.8839836 C14.5019531,33.6652375 14.666014,34.2726533 14.9941406,34.7062492 C15.3222673,35.1398452 15.8027312,35.3546868 16.4355469,35.3507805 C16.9003929,35.3546868 17.2890609,35.2160163 17.6015625,34.9347649 C17.9140641,34.6535135 18.0703125,34.3253917 18.0703125,33.9503899 Z" id="made-by-toshihide-an"></path>
        </g>
    </g>
</svg>