<?xml version="1.0" encoding="UTF-8"?>
<svg width="186px" height="64px" viewBox="0 0 186 64" version="1.1" xmlns="http://www.w3.org/2000/svg" xmlns:xlink="http://www.w3.org/1999/xlink">
    <g id="Blog" stroke="none" stroke-width="1" fill="none" fill-rule="evenodd">
        <rect id="Rectangle" x="0" y="0" width="186" height="64"></rect>
        <path d="M1.01953125,36 L1.01953125,29.6425781 L1.91015625,29.6425781 L1.91015625,30.2519531 L1.93359375,30.2519531 C2.08203199,30.0214832 2.30468602,29.832032 2.6015625,29.6835938 C2.89843898,29.5351555 3.23046691,29.4609375 3.59765625,29.4609375 C3.96484559,29.4609375 4.2910142,29.5507804 4.57617188,29.7304688 C4.86132955,29.9101571 5.08007736,30.1328112 5.23242188,30.3984375 L5.25585938,30.3984375 C5.40820389,30.1406237 5.64257654,29.9199228 5.95898438,29.7363281 C6.27539221,29.5527335 6.63671672,29.4609375 7.04296875,29.4609375 C7.71484711,29.4609375 8.24999801,29.6582012 8.6484375,30.0527344 C9.04687699,30.4472676 9.24414064,30.9863247 9.24023438,31.6699219 L9.24029126,36 L8.29101562,36 L8.29101562,31.96875 C8.29101562,30.8984321 7.85937932,30.3613281 6.99609375,30.3574219 C6.55468529,30.3574219 6.21289184,30.4921862 5.97070312,30.7617188 C5.72851441,31.0312513 5.60546877,31.4062476 5.6015625,31.8867188 L5.6015625,36 L4.65820312,36 L4.65820312,31.96875 C4.65820312,30.8984321 4.22461371,30.3613281 3.35742188,30.3574219 C2.8925758,30.3574219 2.54882924,30.4999986 2.32617188,30.7851562 C2.10351451,31.0703139 1.9921875,31.4374978 1.9921875,31.8867188 L1.9921875,36 L1.01953125,36 Z M11.7539063,34.3066406 C11.7539063,34.9707064 12.1738239,35.3027344 13.0136719,35.3027344 C13.5878935,35.3027344 14.0332015,35.1738294 14.3496094,34.9160156 C14.6621109,34.6542956 14.8164063,34.3359394 14.8125,33.9609375 L14.8125,32.3789062 L14.7890625,32.3789062 C14.679687,32.6093762 14.1367236,32.8613268 13.1601563,33.1347656 C12.6171848,33.2871101 12.2460947,33.4492179 12.046875,33.6210938 C11.8515615,33.7968759 11.7539063,34.0253892 11.7539063,34.3066406 Z M14.9121094,36 L14.9121094,35.3027344 L14.8886719,35.3027344 C14.7675775,35.5097667 14.5390642,35.7070303 14.203125,35.8945312 C13.8671858,36.0820322 13.4472681,36.1777344 12.9433594,36.1816406 C12.2402309,36.1816406 11.7070331,36.0097673 11.34375,35.6660156 C10.9765607,35.3183576 10.7929688,34.8828151 10.7929688,34.359375 C10.7929688,33.8359349 10.9550765,33.4257827 11.2792969,33.1289062 C11.6035172,32.8320298 12.080075,32.6035164 12.7089844,32.4433594 C13.6855518,32.1972644 14.2714834,31.9960945 14.4667969,31.8398438 C14.6582041,31.683593 14.7539063,31.4843762 14.7539063,31.2421875 C14.7539063,30.9960925 14.6445323,30.783204 14.4257813,30.6035156 C14.2070302,30.4238272 13.8730491,30.3339844 13.4238281,30.3339844 C12.5761676,30.3339844 12.0605478,30.7539021 11.8769531,31.59375 L10.9863281,31.3417969 C11.0917974,30.7832003 11.3515604,30.3300799 11.765625,29.9824219 C12.1796896,29.6347639 12.7382777,29.4609375 13.4414063,29.4609375 C14.1445348,29.4609375 14.7089822,29.6425763 15.1347656,30.0058594 C15.5644553,30.3691424 15.7773438,30.9394492 15.7734375,31.7167969 L15.7734375,36 L14.9121094,36 Z M21.9140625,36 L21.9140625,35.390625 L21.890625,35.390625 C21.7226554,35.5898447 21.4765641,35.7714836 21.1523438,35.9355469 C20.8281234,36.0996102 20.4531271,36.1816406 20.0273438,36.1816406 C19.1874958,36.1816406 18.5175806,35.8769562 18.0175781,35.2675781 C17.5175756,34.6582001 17.2675781,33.8437551 17.2675781,32.8242188 C17.2675781,31.8007761 17.5292943,30.984378 18.0527344,30.375 C18.5761745,29.765622 19.2187462,29.4609375 19.9804688,29.4609375 C20.738285,29.4609375 21.3417946,29.7246067 21.7910156,30.2519531 L21.8203125,30.2519531 L21.8203125,27.2402344 L22.8046875,27.2402344 L22.8046875,36 L21.9140625,36 Z M21.8203125,33.890625 L21.8203125,31.921875 C21.8203125,31.5234355 21.6718765,31.1601579 21.375,30.8320312 C21.0781235,30.5039046 20.6816431,30.3417969 20.1855469,30.3457031 C19.5527312,30.3457031 19.0722673,30.5624978 18.7441406,30.9960938 C18.416014,31.4335959 18.2519531,32.0429648 18.2519531,32.8242188 C18.2519531,33.6054727 18.416014,34.2128885 18.7441406,34.6464844 C19.0722673,35.0800803 19.5527312,35.2949219 20.1855469,35.2910156 C20.6503929,35.2949219 21.0390609,35.1562514 21.3515625,34.875 C21.6640641,34.5937486 21.8203125,34.2656269 21.8203125,33.890625 Z M25.4238281,32.3261719 L29.2089844,32.3261719 C29.1933593,31.7910129 29.0332046,31.328127 28.7285156,30.9375 C28.4238266,30.546873 27.9589875,30.3515625 27.3339844,30.3515625 C26.7089813,30.3515625 26.2363297,30.5585917 25.9160156,30.9726562 C25.5957015,31.3945334 25.4316407,31.8457007 25.4238281,32.3261719 Z M27.3691406,36.1816406 C26.5058551,36.1816406 25.7988309,35.8750031 25.2480469,35.2617188 C24.6972629,34.6484344 24.4199219,33.8339895 24.4160156,32.8183594 C24.4160156,31.798823 24.6855442,30.984378 25.2246094,30.375 C25.7636746,29.765622 26.4609332,29.4609375 27.3164063,29.4609375 C28.167973,29.4609375 28.8574192,29.7617157 29.3847656,30.3632812 C29.912112,30.9648468 30.1757813,31.7831979 30.1757813,32.8183594 L30.1757813,33.1054688 L25.4003906,33.1054688 C25.4082032,33.7148468 25.5781233,34.2324197 25.9101563,34.6582031 C26.2421892,35.0839865 26.7324186,35.296875 27.3808594,35.296875 C28.0293001,35.296875 28.5195296,35.0820334 28.8515625,34.6523438 C29.0000007,34.4648428 29.1308588,34.2617198 29.2441406,34.0429688 L30.0351563,34.5585938 C29.7968738,35.0234398 29.4550804,35.4101547 29.0097656,35.71875 C28.5644509,36.0273453 28.0175814,36.1816406 27.3691406,36.1816406 Z M34.7929688,36 L34.7929688,27.2402344 L35.7773438,27.2402344 L35.7773438,30.2519531 L35.8007812,30.2519531 C36.246096,29.7246067 36.8515587,29.4609375 37.6171875,29.4609375 C38.3828163,29.4609375 39.025388,29.7695282 39.5449219,30.3867188 C40.0644557,31.0039093 40.3242188,31.8203074 40.3242188,32.8359375 C40.3242188,33.8515676 40.0742213,34.6621063 39.5742188,35.2675781 C39.0742162,35.8769562 38.4043011,36.1816406 37.5644531,36.1816406 C37.1386697,36.1816406 36.7656266,36.0996102 36.4453125,35.9355469 C36.1249984,35.7714836 35.8789071,35.5898447 35.7070312,35.390625 L35.6835938,35.390625 L35.6835938,36 L34.7929688,36 Z M35.7773438,31.921875 L35.7773438,33.890625 C35.7773438,34.2656269 35.9335922,34.5937486 36.2460938,34.875 C36.5585953,35.1562514 36.9472633,35.2949219 37.4121094,35.2910156 C38.0410188,35.2871094 38.5195296,35.0703146 38.8476563,34.640625 C39.1757829,34.2109354 39.3398438,33.6035196 39.3398438,32.8183594 C39.3398438,32.0331992 39.1757829,31.4257834 38.8476563,30.9960938 C38.5195296,30.5664041 38.0410188,30.3496094 37.4121094,30.3457031 C36.9160131,30.3417969 36.5195327,30.5039046 36.2226563,30.8320312 C35.9257798,31.1601579 35.7773438,31.5234355 35.7773438,31.921875 Z M42.2753906,38.7011719 L43.5527344,35.3261719 L41.1621094,29.6425781 L42.1933594,29.6425781 L43.9921875,34.03125 L44.015625,34.03125 L45.6386719,29.6425781 L46.6464844,29.6425781 L43.2246094,38.7011719 L42.2753906,38.7011719 Z M106.570313,34.3066406 C106.570313,34.9707064 106.99023,35.3027344 107.830078,35.3027344 C108.4043,35.3027344 108.849608,35.1738294 109.166016,34.9160156 C109.478517,34.6542956 109.632813,34.3359394 109.628906,33.9609375 L109.628906,32.3789062 L109.605469,32.3789062 C109.496093,32.6093762 108.95313,32.8613268 107.976563,33.1347656 C107.433591,33.2871101 107.062501,33.4492179 106.863281,33.6210938 C106.667968,33.7968759 106.570313,34.0253892 106.570313,34.3066406 Z M109.728516,36 L109.728516,35.3027344 L109.705078,35.3027344 C109.583984,35.5097667 109.35547,35.7070303 109.019531,35.8945312 C108.683592,36.0820322 108.263674,36.1777344 107.759766,36.1816406 C107.056637,36.1816406 106.523439,36.0097673 106.160156,35.6660156 C105.792967,35.3183576 105.609375,34.8828151 105.609375,34.359375 C105.609375,33.8359349 105.771483,33.4257827 106.095703,33.1289062 C106.419923,32.8320298 106.896481,32.6035164 107.525391,32.4433594 C108.501958,32.1972644 109.08789,31.9960945 109.283203,31.8398438 C109.47461,31.683593 109.570313,31.4843762 109.570313,31.2421875 C109.570313,30.9960925 109.460939,30.783204 109.242188,30.6035156 C109.023436,30.4238272 108.689455,30.3339844 108.240234,30.3339844 C107.392574,30.3339844 106.876954,30.7539021 106.693359,31.59375 L105.802734,31.3417969 C105.908204,30.7832003 106.167967,30.3300799 106.582031,29.9824219 C106.996096,29.6347639 107.554684,29.4609375 108.257813,29.4609375 C108.960941,29.4609375 109.525388,29.6425763 109.951172,30.0058594 C110.380862,30.3691424 110.59375,30.9394492 110.589844,31.7167969 L110.589844,36 L109.728516,36 Z M112.505859,36 L112.505859,29.6425781 L113.466797,29.6425781 L113.466797,30.2519531 L113.490234,30.2519531 C113.666017,30.0214832 113.917967,29.832032 114.246094,29.6835938 C114.57422,29.5351555 114.917967,29.4609375 115.277344,29.4609375 C115.964847,29.4609375 116.519529,29.6718729 116.941406,30.09375 C117.363283,30.5156271 117.572266,31.0917932 117.568359,31.8222656 L117.568359,36 L116.595703,36 L116.595703,32.1386719 C116.595703,30.9550722 116.10938,30.3613281 115.136719,30.3574219 C114.640623,30.3574219 114.242189,30.4980455 113.941406,30.7792969 C113.640623,31.0605483 113.490234,31.4492163 113.490234,31.9453125 L113.490234,36 L112.505859,36 Z M123.773438,36 L123.773438,35.390625 L123.75,35.390625 C123.58203,35.5898447 123.335939,35.7714836 123.011719,35.9355469 C122.687498,36.0996102 122.312502,36.1816406 121.886719,36.1816406 C121.046871,36.1816406 120.376956,35.8769562 119.876953,35.2675781 C119.376951,34.6582001 119.126953,33.8437551 119.126953,32.8242188 C119.126953,31.8007761 119.388669,30.984378 119.912109,30.375 C120.435549,29.765622 121.078121,29.4609375 121.839844,29.4609375 C122.59766,29.4609375 123.20117,29.7246067 123.650391,30.2519531 L123.679688,30.2519531 L123.679688,27.2402344 L124.664062,27.2402344 L124.664062,36 L123.773438,36 Z M123.679688,33.890625 L123.679688,31.921875 C123.679688,31.5234355 123.531251,31.1601579 123.234375,30.8320312 C122.937499,30.5039046 122.541018,30.3417969 122.044922,30.3457031 C121.412106,30.3457031 120.931642,30.5624978 120.603516,30.9960938 C120.275389,31.4335959 120.111328,32.0429648 120.111328,32.8242188 C120.111328,33.6054727 120.275389,34.2128885 120.603516,34.6464844 C120.931642,35.0800803 121.412106,35.2949219 122.044922,35.2910156 C122.509768,35.2949219 122.898436,35.1562514 123.210938,34.875 C123.523439,34.5937486 123.679688,34.2656269 123.679688,33.890625 Z" id="made-by-toshihide-an" fill="#C1C7CD"></path>
        <path d="M130.623047,36 L129.216797,29.6425781 L130.189453,29.6425781 L131.208984,34.4296875 L131.232422,34.4296875 L132.914062,29.6425781 L133.798828,29.6425781 L135.457031,34.4296875 L135.480469,34.4296875 L136.623047,29.6425781 L137.583984,29.6425781 L136.060547,36 L135.158203,36 L133.359375,30.8027344 L133.335938,30.8027344 L131.53125,36 L130.623047,36 Z M143.648438,35.2910156 C143.113279,35.8847686 142.429692,36.1816406 141.597656,36.1816406 C140.765621,36.1816406 140.078128,35.8847686 139.535156,35.2910156 C138.988279,34.6972627 138.714844,33.8769584 138.714844,32.8300781 C138.714844,31.7831979 138.996091,30.9589874 139.558594,30.3574219 C140.121097,29.7597626 140.80273,29.4609375 141.603516,29.4609375 C142.408207,29.4609375 143.083982,29.7617157 143.630859,30.3632812 C144.177737,30.9648468 144.451172,31.7871042 144.451172,32.8300781 C144.451172,33.8769584 144.183596,34.6972627 143.648438,35.2910156 Z M141.591797,35.2910156 C142.138675,35.2949219 142.589842,35.0781272 142.945312,34.640625 C143.300783,34.2031228 143.478516,33.595707 143.478516,32.8183594 C143.478516,32.0410117 143.302736,31.4335959 142.951172,30.9960937 C142.599608,30.5585916 142.14844,30.3417969 141.597656,30.3457031 C141.042966,30.3457031 140.585939,30.5605447 140.226562,30.9902344 C139.867186,31.4238303 139.6875,32.0351523 139.6875,32.8242187 C139.6875,33.6132852 139.867186,34.2226541 140.226562,34.6523437 C140.589846,35.0781271 141.044919,35.2910156 141.591797,35.2910156 Z M150.580078,35.2910156 C150.044919,35.8847686 149.361332,36.1816406 148.529297,36.1816406 C147.697261,36.1816406 147.009768,35.8847686 146.466797,35.2910156 C145.919919,34.6972627 145.646484,33.8769584 145.646484,32.8300781 C145.646484,31.7831979 145.927732,30.9589874 146.490234,30.3574219 C147.052737,29.7597626 147.734371,29.4609375 148.535156,29.4609375 C149.339848,29.4609375 150.015622,29.7617157 150.5625,30.3632812 C151.109378,30.9648468 151.382812,31.7871042 151.382812,32.8300781 C151.382812,33.8769584 151.115237,34.6972627 150.580078,35.2910156 Z M148.523438,35.2910156 C149.070315,35.2949219 149.521483,35.0781272 149.876953,34.640625 C150.232424,34.2031228 150.410156,33.595707 150.410156,32.8183594 C150.410156,32.0410117 150.234377,31.4335959 149.882812,30.9960937 C149.531248,30.5585916 149.080081,30.3417969 148.529297,30.3457031 C147.974607,30.3457031 147.51758,30.5605447 147.158203,30.9902344 C146.798826,31.4238303 146.619141,32.0351523 146.619141,32.8242187 C146.619141,33.6132852 146.798826,34.2226541 147.158203,34.6523437 C147.521486,35.0781271 147.97656,35.2910156 148.523438,35.2910156 Z M153,36 L153,27.2402344 L153.984375,27.2402344 L153.984375,30.2753906 L154.007812,30.2753906 C154.183595,30.0371082 154.441405,29.8417976 154.78125,29.6894531 C155.121095,29.5371086 155.484373,29.4609375 155.871094,29.4609375 C156.550785,29.4609375 157.10156,29.6660136 157.523438,30.0761719 C157.945315,30.4863302 158.154297,31.076168 158.150391,31.8457031 L158.150391,36 L157.166016,36 L157.166016,32.109375 C157.166016,30.9414004 156.673833,30.3574219 155.689453,30.3574219 C155.169919,30.3574219 154.755861,30.5097641 154.447266,30.8144531 C154.13867,31.1191421 153.984375,31.5156226 153.984375,32.0039062 L153.984375,36 L153,36 Z M160.458984,38.7011719 L161.736328,35.3261719 L159.345703,29.6425781 L160.376953,29.6425781 L162.175781,34.03125 L162.199219,34.03125 L163.822266,29.6425781 L164.830078,29.6425781 L161.408203,38.7011719 L160.458984,38.7011719 Z M168.615234,36.1816406 C167.751949,36.1816406 167.044925,35.8750031 166.494141,35.2617188 C165.943357,34.6484344 165.666016,33.8339895 165.662109,32.8183594 C165.662109,31.798823 165.931638,30.984378 166.470703,30.375 C167.009768,29.765622 167.707027,29.4609375 168.5625,29.4609375 C169.414067,29.4609375 170.103513,29.7617157 170.630859,30.3632812 C171.158206,30.9648468 171.421875,31.7831979 171.421875,32.8183594 L171.421875,33.1054688 L166.646484,33.1054688 C166.654297,33.7148468 166.824217,34.2324197 167.15625,34.6582031 C167.488283,35.0839865 167.978512,35.296875 168.626953,35.296875 C169.275394,35.296875 169.765623,35.0820334 170.097656,34.6523438 C170.246094,34.4648428 170.376953,34.2617198 170.490234,34.0429688 L171.28125,34.5585938 C171.042968,35.0234398 170.701174,35.4101547 170.255859,35.71875 C169.810545,36.0273453 169.263675,36.1816406 168.615234,36.1816406 Z M166.669922,32.3261719 L170.455078,32.3261719 C170.439453,31.7910129 170.279298,31.328127 169.974609,30.9375 C169.66992,30.546873 169.205081,30.3515625 168.580078,30.3515625 C167.955075,30.3515625 167.482423,30.5585917 167.162109,30.9726562 C166.841795,31.3945334 166.677734,31.8457007 166.669922,32.3261719 Z M177.550781,35.2910156 C177.015622,35.8847686 176.332035,36.1816406 175.5,36.1816406 C174.667965,36.1816406 173.980471,35.8847686 173.4375,35.2910156 C172.890622,34.6972627 172.617188,33.8769584 172.617188,32.8300781 C172.617188,31.7831979 172.898435,30.9589874 173.460938,30.3574219 C174.02344,29.7597626 174.705074,29.4609375 175.505859,29.4609375 C176.310551,29.4609375 176.986325,29.7617157 177.533203,30.3632812 C178.080081,30.9648468 178.353516,31.7871042 178.353516,32.8300781 C178.353516,33.8769584 178.08594,34.6972627 177.550781,35.2910156 Z M175.494141,35.2910156 C176.041018,35.2949219 176.492186,35.0781272 176.847656,34.640625 C177.203127,34.2031228 177.380859,33.595707 177.380859,32.8183594 C177.380859,32.0410117 177.20508,31.4335959 176.853516,30.9960937 C176.501951,30.5585916 176.050784,30.3417969 175.5,30.3457031 C174.94531,30.3457031 174.488283,30.5605447 174.128906,30.9902344 C173.769529,31.4238303 173.589844,32.0351523 173.589844,32.8242187 C173.589844,33.6132852 173.769529,34.2226541 174.128906,34.6523437 C174.492189,35.0781271 174.947263,35.2910156 175.494141,35.2910156 Z M179.970703,36 L179.970703,29.6425781 L180.931641,29.6425781 L180.931641,30.2519531 L180.955078,30.2519531 C181.13086,30.0214832 181.382811,29.832032 181.710938,29.6835938 C182.039064,29.5351555 182.382811,29.4609375 182.742188,29.4609375 C183.429691,29.4609375 183.984373,29.6718729 184.40625,30.09375 C184.828127,30.5156271 185.037109,31.0917932 185.033203,31.8222656 L185.033203,36 L184.060547,36 L184.060547,32.1386719 C184.060547,30.9550722 183.574224,30.3613281 182.601562,30.3574219 C182.105466,30.3574219 181.707033,30.4980455 181.40625,30.7792969 C181.105467,31.0605483 180.955078,31.4492163 180.955078,31.9453125 L180.955078,36 L179.970703,36 Z" id="Combined-Shape" fill="#6C7F95"></path>
        <path d="M51.1289062,34.1542969 L51.1289062,30.515625 L50.2382812,30.515625 L50.2382812,29.6425781 L51.1523438,29.6425781 L51.1523438,28.078125 L52.0898438,28.078125 L52.0898438,29.6425781 L53.6601562,29.6425781 L53.6601562,30.515625 L52.1015625,30.515625 L52.1015625,34.03125 C52.1015625,34.4062519 52.1542963,34.6699211 52.2597656,34.8222656 C52.3652349,34.9746101 52.5722641,35.0507812 52.8808594,35.0507812 L53.3613281,35.0507812 L53.3613281,36 L52.8339844,36 C52.2324189,36 51.7988295,35.8476578 51.5332031,35.5429688 C51.2675768,35.2382797 51.1328125,34.7753937 51.1289062,34.1542969 Z M59.7304688,35.2910156 C59.1953098,35.8847686 58.5117229,36.1816406 57.6796875,36.1816406 C56.8476521,36.1816406 56.160159,35.8847686 55.6171875,35.2910156 C55.0703098,34.6972627 54.796875,33.8769584 54.796875,32.8300781 C54.796875,31.7831979 55.0781222,30.9589874 55.640625,30.3574219 C56.2031278,29.7597626 56.8847616,29.4609375 57.6855469,29.4609375 C58.4902384,29.4609375 59.1660129,29.7617157 59.7128906,30.3632812 C60.2597684,30.9648468 60.5332031,31.7871042 60.5332031,32.8300781 C60.5332031,33.8769584 60.2656277,34.6972627 59.7304688,35.2910156 Z M57.6738281,35.2910156 C58.2207059,35.2949219 58.6718732,35.0781272 59.0273438,34.640625 C59.3828143,34.2031228 59.5605469,33.595707 59.5605469,32.8183594 C59.5605469,32.0410117 59.3847674,31.4335959 59.0332031,30.9960937 C58.6816389,30.5585916 58.2304715,30.3417969 57.6796875,30.3457031 C57.1249972,30.3457031 56.6679705,30.5605447 56.3085938,30.9902344 C55.949217,31.4238303 55.7695312,32.0351523 55.7695312,32.8242187 C55.7695312,33.6132852 55.949217,34.2226541 56.3085938,34.6523437 C56.6718768,35.0781271 57.1269504,35.2910156 57.6738281,35.2910156 Z M65.8710938,34.3066406 C65.8710938,33.9941391 65.7539074,33.7578133 65.5195312,33.5976562 C65.2851551,33.4374992 64.783207,33.2519542 64.0136719,33.0410156 C63.2441368,32.8300771 62.6992204,32.587892 62.3789062,32.3144531 C62.0585921,32.0449205 61.8984375,31.6757836 61.8984375,31.2070312 C61.8984375,30.7382789 62.093748,30.3300799 62.484375,29.9824219 C62.8710957,29.6347639 63.4121059,29.4609375 64.1074219,29.4609375 C64.8027379,29.4609375 65.3535136,29.6269515 65.7597656,29.9589844 C66.1660177,30.2910173 66.4394524,30.7324191 66.5800781,31.2832031 L65.7246094,31.5117188 C65.4785144,30.703121 64.9394573,30.2988281 64.1074219,30.2988281 C63.6933573,30.2988281 63.373048,30.3867179 63.1464844,30.5625 C62.9199207,30.7382821 62.8085937,30.9531237 62.8125,31.2070312 C62.8125,31.464845 62.9199208,31.6562494 63.1347656,31.78125 C63.3496104,31.9062506 63.8574179,32.0820301 64.6582031,32.3085938 C65.4589884,32.5351574 66.0136703,32.7988266 66.3222656,33.0996094 C66.6308609,33.4003921 66.7871094,33.804685 66.7910156,34.3125 C66.7988282,34.820315 66.5996114,35.2578107 66.1933594,35.625 C65.7871073,35.9921893 65.1718791,36.1777344 64.3476562,36.1816406 C63.5234334,36.1816406 62.8886741,35.9628928 62.4433594,35.5253906 C61.9980446,35.0878884 61.7402347,34.5253941 61.6699219,33.8378906 L62.5957031,33.6621094 C62.7167975,34.7753962 63.3046822,35.3300781 64.359375,35.3261719 C64.8632838,35.3261719 65.2402331,35.2343759 65.4902344,35.0507812 C65.7402356,34.8671866 65.8671875,34.6191422 65.8710938,34.3066406 Z M68.3496094,36 L68.3496094,27.2402344 L69.3339844,27.2402344 L69.3339844,30.2753906 L69.3574219,30.2753906 C69.533204,30.0371082 69.7910139,29.8417976 70.1308594,29.6894531 C70.4707048,29.5371086 70.8339824,29.4609375 71.2207031,29.4609375 C71.900394,29.4609375 72.4511698,29.6660136 72.8730469,30.0761719 C73.294924,30.4863302 73.5039063,31.076168 73.5,31.8457031 L73.5,36 L72.515625,36 L72.515625,32.109375 C72.515625,30.9414004 72.0234424,30.3574219 71.0390625,30.3574219 C70.5195287,30.3574219 70.1054703,30.5097641 69.796875,30.8144531 C69.4882797,31.1191421 69.3339844,31.5156226 69.3339844,32.0039062 L69.3339844,36 L68.3496094,36 Z M75.4746094,28.3535156 L75.4746094,27.2402344 L76.6054688,27.2402344 L76.6054688,28.3535156 L75.4746094,28.3535156 Z M75.5449219,36 L75.5449219,29.6425781 L76.5292969,29.6425781 L76.5292969,36 L75.5449219,36 Z M78.6386719,36 L78.6386719,27.2402344 L79.6230469,27.2402344 L79.6230469,30.2753906 L79.6464844,30.2753906 C79.8222665,30.0371082 80.0800764,29.8417976 80.4199219,29.6894531 C80.7597673,29.5371086 81.1230449,29.4609375 81.5097656,29.4609375 C82.1894565,29.4609375 82.7402323,29.6660136 83.1621094,30.0761719 C83.5839865,30.4863302 83.7929688,31.076168 83.7890625,31.8457031 L83.7890625,36 L82.8046875,36 L82.8046875,32.109375 C82.8046875,30.9414004 82.3125049,30.3574219 81.328125,30.3574219 C80.8085912,30.3574219 80.3945328,30.5097641 80.0859375,30.8144531 C79.7773422,31.1191421 79.6230469,31.5156226 79.6230469,32.0039062 L79.6230469,36 L78.6386719,36 Z M85.7636719,28.3535156 L85.7636719,27.2402344 L86.8945312,27.2402344 L86.8945312,28.3535156 L85.7636719,28.3535156 Z M85.8339844,36 L85.8339844,29.6425781 L86.8183594,29.6425781 L86.8183594,36 L85.8339844,36 Z M93.1523438,36 L93.1523438,35.390625 L93.1289062,35.390625 C92.9609367,35.5898447 92.7148454,35.7714836 92.390625,35.9355469 C92.0664046,36.0996102 91.6914084,36.1816406 91.265625,36.1816406 C90.4257771,36.1816406 89.7558619,35.8769562 89.2558594,35.2675781 C88.7558569,34.6582001 88.5058594,33.8437551 88.5058594,32.8242188 C88.5058594,31.8007761 88.7675755,30.984378 89.2910156,30.375 C89.8144557,29.765622 90.4570274,29.4609375 91.21875,29.4609375 C91.9765663,29.4609375 92.5800759,29.7246067 93.0292969,30.2519531 L93.0585938,30.2519531 L93.0585938,27.2402344 L94.0429688,27.2402344 L94.0429688,36 L93.1523438,36 Z M93.0585938,33.890625 L93.0585938,31.921875 C93.0585938,31.5234355 92.9101577,31.1601579 92.6132812,30.8320312 C92.3164048,30.5039046 91.9199244,30.3417969 91.4238281,30.3457031 C90.7910125,30.3457031 90.3105485,30.5624978 89.9824219,30.9960937 C89.6542952,31.4335959 89.4902344,32.0429648 89.4902344,32.8242187 C89.4902344,33.6054727 89.6542952,34.2128885 89.9824219,34.6464844 C90.3105485,35.0800803 90.7910125,35.2949219 91.4238281,35.2910156 C91.8886742,35.2949219 92.2773422,35.1562514 92.5898438,34.875 C92.9023453,34.5937486 93.0585938,34.2656269 93.0585938,33.890625 Z M98.6074219,36.1816406 C97.7441363,36.1816406 97.0371121,35.8750031 96.4863281,35.2617188 C95.9355441,34.6484344 95.6582031,33.8339895 95.6542969,32.8183594 C95.6542969,31.798823 95.9238254,30.984378 96.4628906,30.375 C97.0019558,29.765622 97.6992145,29.4609375 98.5546875,29.4609375 C99.4062543,29.4609375 100.0957,29.7617157 100.623047,30.3632812 C101.150393,30.9648468 101.414062,31.7831979 101.414062,32.8183594 L101.414062,33.1054688 L96.6386719,33.1054688 C96.6464844,33.7148468 96.8164046,34.2324197 97.1484375,34.6582031 C97.4804704,35.0839865 97.9706999,35.296875 98.6191406,35.296875 C99.2675814,35.296875 99.7578108,35.0820334 100.089844,34.6523438 C100.238282,34.4648428 100.36914,34.2617198 100.482422,34.0429688 L101.273438,34.5585938 C101.035155,35.0234398 100.693362,35.4101547 100.248047,35.71875 C99.8027321,36.0273453 99.2558626,36.1816406 98.6074219,36.1816406 Z M96.6621094,32.3261719 L100.447266,32.3261719 C100.431641,31.7910129 100.271486,31.328127 99.9667969,30.9375 C99.6621079,30.546873 99.1972688,30.3515625 98.5722656,30.3515625 C97.9472625,30.3515625 97.474611,30.5585917 97.1542969,30.9726562 C96.8339828,31.3945334 96.6699219,31.8457007 96.6621094,32.3261719 Z" id="Combined-Shape" fill="#6C7F95"></path>
    </g>
</svg>