<?xml version="1.0" encoding="UTF-8"?>
<svg width="46px" height="64px" viewBox="0 0 46 64" version="1.1" xmlns="http://www.w3.org/2000/svg" xmlns:xlink="http://www.w3.org/1999/xlink">
    <g id="Blog" stroke="none" stroke-width="1" fill="none" fill-rule="evenodd">
        <g id="made-by" fill="#C1C7CD">
            <g id="Group-2" transform="translate(0.000000, 27.000000)">
                <path d="M0.01953125,9 L0.01953125,2.64257812 L0.91015625,2.64257812 L0.91015625,3.25195312 L0.93359375,3.25195312 C1.08203199,3.02148322 1.30468602,2.83203199 1.6015625,2.68359375 C1.89843898,2.53515551 2.23046691,2.4609375 2.59765625,2.4609375 C2.96484559,2.4609375 3.2910142,2.55078035 3.57617188,2.73046875 C3.86132955,2.91015715 4.08007736,3.13281117 4.23242188,3.3984375 L4.25585938,3.3984375 C4.40820389,3.14062371 4.64257654,2.91992279 4.95898438,2.73632812 C5.27539221,2.55273346 5.63671672,2.4609375 6.04296875,2.4609375 C6.71484711,2.4609375 7.24999801,2.65820115 7.6484375,3.05273438 C8.04687699,3.4472676 8.24414064,3.98632471 8.24023438,4.66992188 L8.24029126,9 L7.29101562,9 L7.29101562,4.96875 C7.29101562,3.89843215 6.85937932,3.36132814 5.99609375,3.35742188 C5.55468529,3.35742188 5.21289184,3.49218615 4.97070312,3.76171875 C4.72851441,4.03125135 4.60546877,4.4062476 4.6015625,4.88671875 L4.6015625,9 L3.65820312,9 L3.65820312,4.96875 C3.65820312,3.89843215 3.22461371,3.36132814 2.35742188,3.35742188 C1.8925758,3.35742188 1.54882924,3.49999857 1.32617188,3.78515625 C1.10351451,4.07031393 0.9921875,4.43749775 0.9921875,4.88671875 L0.9921875,9 L0.01953125,9 Z" id="Path"></path>
                <path d="M13.9121094,9 L13.9121094,8.30273438 L13.8886719,8.30273438 C13.7675775,8.50976666 13.5390642,8.70703031 13.203125,8.89453125 C12.8671858,9.08203219 12.4472681,9.17773436 11.9433594,9.18164062 C11.2402309,9.18164062 10.7070331,9.00976734 10.34375,8.66601562 C9.97656066,8.31835764 9.79296875,7.88281512 9.79296875,7.359375 C9.79296875,6.83593488 9.9550765,6.42578273 10.2792969,6.12890625 C10.6035172,5.83202977 11.080075,5.60351643 11.7089844,5.44335938 C12.6855518,5.19726439 13.2714834,4.99609453 13.4667969,4.83984375 C13.6582041,4.68359297 13.7539062,4.48437621 13.7539062,4.2421875 C13.7539062,3.99609252 13.6445323,3.78320402 13.4257812,3.60351562 C13.2070302,3.42382723 12.8730491,3.33398438 12.4238281,3.33398438 C11.5761676,3.33398438 11.0605478,3.75390205 10.8769531,4.59375 L9.98632812,4.34179688 C10.0917974,3.78320033 10.3515604,3.33007986 10.765625,2.98242188 C11.1796896,2.63476389 11.7382777,2.4609375 12.4414062,2.4609375 C13.1445348,2.4609375 13.7089822,2.64257631 14.1347656,3.00585938 C14.5644553,3.36914244 14.7773438,3.93944924 14.7734375,4.71679688 L14.7734375,9 L13.9121094,9 Z M10.7539062,7.30664062 C10.7539062,7.97070645 11.1738239,8.30273438 12.0136719,8.30273438 C12.5878935,8.30273438 13.0332015,8.17382941 13.3496094,7.91601562 C13.6621109,7.65429557 13.8164063,7.33593937 13.8125,6.9609375 L13.8125,5.37890625 L13.7890625,5.37890625 C13.679687,5.60937615 13.1367236,5.86132676 12.1601562,6.13476562 C11.6171848,6.28711014 11.2460947,6.44921789 11.046875,6.62109375 C10.8515615,6.79687588 10.7539062,7.02538922 10.7539062,7.30664062 Z" id="Combined-Shape"></path>
                <path d="M20.9140625,9 L20.9140625,8.390625 L20.890625,8.390625 C20.7226554,8.58984475 20.4765641,8.77148355 20.1523438,8.93554688 C19.8281234,9.0996102 19.4531271,9.18164062 19.0273438,9.18164062 C18.1874958,9.18164062 17.5175806,8.87695617 17.0175781,8.26757812 C16.5175756,7.65820008 16.2675781,6.8437551 16.2675781,5.82421875 C16.2675781,4.80077613 16.5292943,3.98437805 17.0527344,3.375 C17.5761745,2.76562195 18.2187462,2.4609375 18.9804688,2.4609375 C19.738285,2.4609375 20.3417946,2.72460674 20.7910156,3.25195313 L20.8203125,3.25195313 L20.8203125,0.240234375 L21.8046875,0.240234375 L21.8046875,9 L20.9140625,9 Z M20.8203125,6.890625 L20.8203125,4.921875 C20.8203125,4.52343551 20.6718765,4.16015789 20.375,3.83203125 C20.0781235,3.50390461 19.6816431,3.34179686 19.1855469,3.34570312 C18.5527312,3.34570312 18.0722673,3.56249783 17.7441406,3.99609375 C17.416014,4.43359594 17.2519531,5.04296484 17.2519531,5.82421875 C17.2519531,6.60547266 17.416014,7.21288846 17.7441406,7.64648437 C18.0722673,8.08008029 18.5527312,8.29492189 19.1855469,8.29101562 C19.6503929,8.29492189 20.0390609,8.15625141 20.3515625,7.875 C20.6640641,7.59374859 20.8203125,7.26562687 20.8203125,6.890625 Z" id="Combined-Shape"></path>
                <path d="M26.3691406,9.18164062 C25.5058551,9.18164062 24.7988309,8.87500307 24.2480469,8.26171875 C23.6972629,7.64843443 23.4199219,6.83398945 23.4160156,5.81835938 C23.4160156,4.79882303 23.6855442,3.98437805 24.2246094,3.375 C24.7636746,2.76562195 25.4609332,2.4609375 26.3164062,2.4609375 C27.167973,2.4609375 27.8574192,2.76171574 28.3847656,3.36328125 C28.912112,3.96484676 29.1757812,4.78319795 29.1757812,5.81835938 L29.1757812,6.10546875 L24.4003906,6.10546875 C24.4082032,6.7148468 24.5781233,7.23241975 24.9101562,7.65820312 C25.2421892,8.0839865 25.7324186,8.296875 26.3808594,8.296875 C27.0293001,8.296875 27.5195296,8.0820334 27.8515625,7.65234375 C28.0000007,7.46484281 28.1308588,7.26171984 28.2441406,7.04296875 L29.0351562,7.55859375 C28.7968738,8.02343982 28.4550804,8.41015471 28.0097656,8.71875 C27.5644509,9.02734529 27.0175814,9.18164062 26.3691406,9.18164062 Z M24.4238281,5.32617188 L28.2089844,5.32617188 C28.1933593,4.79101295 28.0332046,4.32812695 27.7285156,3.9375 C27.4238266,3.54687305 26.9589875,3.3515625 26.3339844,3.3515625 C25.7089813,3.3515625 25.2363297,3.55859168 24.9160156,3.97265625 C24.5957015,4.39453336 24.4316407,4.84570072 24.4238281,5.32617188 Z" id="Combined-Shape"></path>
                <path d="M33.7929688,9 L33.7929688,0.240234375 L34.7773438,0.240234375 L34.7773438,3.25195313 L34.8007812,3.25195313 C35.246096,2.72460674 35.8515587,2.4609375 36.6171875,2.4609375 C37.3828163,2.4609375 38.025388,2.76952816 38.5449219,3.38671875 C39.0644557,4.00390934 39.3242188,4.82030742 39.3242188,5.8359375 C39.3242188,6.85156758 39.0742213,7.66210635 38.5742188,8.26757812 C38.0742162,8.87695617 37.4043011,9.18164062 36.5644531,9.18164062 C36.1386697,9.18164062 35.7656266,9.0996102 35.4453125,8.93554688 C35.1249984,8.77148355 34.8789071,8.58984475 34.7070312,8.390625 L34.6835938,8.390625 L34.6835938,9 L33.7929688,9 Z M34.7773438,4.921875 L34.7773438,6.890625 C34.7773438,7.26562687 34.9335922,7.59374859 35.2460938,7.875 C35.5585953,8.15625141 35.9472633,8.29492189 36.4121094,8.29101562 C37.0410188,8.28710936 37.5195296,8.07031465 37.8476562,7.640625 C38.1757829,7.21093535 38.3398438,6.60351955 38.3398438,5.81835937 C38.3398438,5.0331992 38.1757829,4.4257834 37.8476562,3.99609375 C37.5195296,3.5664041 37.0410188,3.34960939 36.4121094,3.34570312 C35.9160131,3.34179686 35.5195327,3.50390461 35.2226562,3.83203125 C34.9257798,4.16015789 34.7773438,4.52343551 34.7773438,4.921875 Z" id="Combined-Shape"></path>
                <polygon id="Path" points="41.2753906 11.7011719 42.5527344 8.32617188 40.1621094 2.64257812 41.1933594 2.64257812 42.9921875 7.03125 43.015625 7.03125 44.6386719 2.64257812 45.6464844 2.64257812 42.2246094 11.7011719"></polygon>
            </g>
        </g>
    </g>
</svg>