<?xml version="1.0" encoding="UTF-8"?>
<svg width="80px" height="64px" viewBox="0 0 80 64" version="1.1" xmlns="http://www.w3.org/2000/svg" xmlns:xlink="http://www.w3.org/1999/xlink">
    <g id="Blog" stroke="none" stroke-width="1" fill="none" fill-rule="evenodd">
        <rect id="Rectangle" x="0" y="0" width="80" height="64"></rect>
        <path d="M1,38.6993289 L1,30.3181208 L3.70604027,30.3181208 L3.70604027,31.295302 C4.40134228,30.242953 5.41610738,30.1114094 6.05503356,30.1114094 C6.41208054,30.1114094 7.06979866,30.1489933 7.63355705,30.4872483 C8.06577181,30.7315436 8.42281879,31.1449664 8.64832215,31.652349 C8.85503356,31.314094 9.17449664,30.9194631 9.71946309,30.5812081 C10.3020134,30.2241611 10.8469799,30.1114094 11.504698,30.1114094 C12.5194631,30.1114094 13.3463087,30.4120805 13.8536913,30.9006711 C14.661745,31.6711409 14.7181208,32.7986577 14.7181208,33.4 L14.7181208,38.6993289 L12.0120805,38.6993289 L12.0120805,34.452349 C12.0120805,34.0201342 12.0120805,33.2684564 11.6550336,32.8174497 C11.4295302,32.5355705 11.0724832,32.366443 10.6778523,32.366443 C10.2268456,32.366443 9.85100671,32.5731544 9.62550336,32.8738255 C9.26845638,33.3248322 9.21208054,33.9825503 9.21208054,34.5275168 L9.21208054,38.6993289 L6.50604027,38.6993289 L6.50604027,34.3395973 C6.50604027,33.7758389 6.48724832,33.1181208 6.0738255,32.704698 C5.79194631,32.4228188 5.45369128,32.366443 5.17181208,32.366443 C4.8147651,32.366443 4.49530201,32.4604027 4.23221477,32.704698 C3.72483221,33.1932886 3.70604027,34.1328859 3.70604027,34.4147651 L3.70604027,38.6993289 L1,38.6993289 Z M22.9865772,31.2577181 L22.9865772,30.3181208 L25.6926174,30.3181208 L25.6926174,38.6993289 L22.9865772,38.6993289 L22.9865772,37.6845638 C22.2536913,38.8120805 21.2013423,38.9812081 20.5060403,38.9812081 C19.3033557,38.9812081 18.2885906,38.6805369 17.3677852,37.7033557 C16.4845637,36.7637584 16.1463087,35.6738255 16.1463087,34.5651007 C16.1463087,33.1557047 16.6724832,31.9530201 17.442953,31.1825503 C18.1758389,30.4496644 19.190604,30.0362416 20.3557047,30.0362416 C21.0697986,30.0362416 22.2161074,30.2053691 22.9865772,31.2577181 Z M21.0322148,32.366443 C20.4496644,32.366443 19.904698,32.6107383 19.547651,32.9677852 C19.2657718,33.2496644 18.9275168,33.738255 18.9275168,34.4899329 C18.9275168,35.2416107 19.2469799,35.7302013 19.4912752,35.9932886 C19.8671141,36.3879195 20.4496644,36.6510067 21.0885906,36.6510067 C21.633557,36.6510067 22.1409396,36.4255034 22.4979866,36.0684564 C22.8550335,35.7302013 23.1557047,35.2040268 23.1557047,34.4899329 C23.1557047,33.8885906 22.9302013,33.3248322 22.5355705,32.9489933 C22.1221476,32.5543624 21.5208054,32.366443 21.0322148,32.366443 Z M27.5154362,38.6993289 L27.5154362,30.3181208 L30.2214765,30.3181208 L30.2214765,31.314094 C31.0483221,30.261745 32.0255033,30.0926174 32.8147651,30.0926174 C33.547651,30.0926174 34.5060402,30.2241611 35.2201342,30.938255 C36.009396,31.7275168 36.0657718,32.7234899 36.0657718,33.4 L36.0657718,38.6993289 L33.3597315,38.6993289 L33.3597315,34.3959732 C33.3597315,33.8510067 33.3409396,33.1557047 32.9087248,32.7234899 C32.7020134,32.5167785 32.3637584,32.347651 31.8751678,32.347651 C31.3114094,32.347651 30.9543624,32.5731544 30.747651,32.7986577 C30.2966443,33.2496644 30.2214765,33.8510067 30.2214765,34.3959732 L30.2214765,38.6993289 L27.5154362,38.6993289 Z M47.3221476,34.5087248 C47.3221476,35.5798658 46.9087248,36.7825503 46.0630872,37.6281879 C45.3114094,38.3798658 44.033557,38.9812081 42.3986577,38.9812081 C40.7637584,38.9812081 39.485906,38.3798658 38.7342282,37.6281879 C37.8885906,36.7825503 37.4751678,35.5798658 37.4751678,34.5087248 C37.4751678,33.4375839 37.8885906,32.2348993 38.7342282,31.3892617 C39.485906,30.6375839 40.7637584,30.0362416 42.3986577,30.0362416 C44.033557,30.0362416 45.3114094,30.6375839 46.0630872,31.3892617 C46.9087248,32.2348993 47.3221476,33.4375839 47.3221476,34.5087248 Z M42.3986577,32.3288591 C41.7785235,32.3288591 41.2711409,32.5355705 40.87651,32.9302013 C40.4818792,33.3248322 40.2563758,33.8322148 40.2563758,34.5087248 C40.2563758,35.2791946 40.5570469,35.7677852 40.87651,36.0872483 C41.2147651,36.4255034 41.7033557,36.6885906 42.4174496,36.6885906 C43.0187919,36.6885906 43.5261745,36.4818792 43.9208053,36.0872483 C44.3154362,35.6926174 44.5409396,35.1852349 44.5409396,34.5087248 C44.5409396,33.8322148 44.3154362,33.3248322 43.9208053,32.9302013 C43.5261745,32.5355705 43.0187919,32.3288591 42.3986577,32.3288591 Z M48.8067114,25 L51.5127516,25 L51.5127516,38.6993289 L48.8067114,38.6993289 L48.8067114,25 Z M59.8375838,31.2577181 L59.8375838,30.3181208 L62.5436241,30.3181208 L62.5436241,38.6993289 L59.8375838,38.6993289 L59.8375838,37.6845638 C59.1046979,38.8120805 58.0523489,38.9812081 57.3570469,38.9812081 C56.1543624,38.9812081 55.1395973,38.6805369 54.2187919,37.7033557 C53.3355704,36.7637584 52.9973154,35.6738255 52.9973154,34.5651007 C52.9973154,33.1557047 53.5234899,31.9530201 54.2939597,31.1825503 C55.0268456,30.4496644 56.0416107,30.0362416 57.2067114,30.0362416 C57.9208053,30.0362416 59.067114,30.2053691 59.8375838,31.2577181 Z M57.8832214,32.366443 C57.3006711,32.366443 56.7557046,32.6107383 56.3986577,32.9677852 C56.1167785,33.2496644 55.7785234,33.738255 55.7785234,34.4899329 C55.7785234,35.2416107 56.0979865,35.7302013 56.3422818,35.9932886 C56.7181207,36.3879195 57.3006711,36.6510067 57.9395973,36.6510067 C58.4845637,36.6510067 58.9919463,36.4255034 59.3489932,36.0684564 C59.7060402,35.7302013 60.0067114,35.2040268 60.0067114,34.4899329 C60.0067114,33.8885906 59.781208,33.3248322 59.3865771,32.9489933 C58.9731543,32.5543624 58.371812,32.366443 57.8832214,32.366443 Z M64.4416107,25 L67.1476509,25 L67.1476509,31.2577181 C67.824161,30.3369128 68.8389261,30.0362416 69.7597315,30.0362416 C70.9060402,30.0362416 71.9395972,30.4684564 72.6724832,31.1637584 C73.4805368,31.9342282 73.9879194,33.0805369 73.9879194,34.4711409 C73.9879194,35.7677852 73.5369127,36.9704698 72.6724832,37.8348993 C71.9395972,38.5865772 71.0375838,38.9812081 69.7973154,38.9812081 C68.3127516,38.9812081 67.5610738,38.285906 67.1476509,37.6845638 L67.1476509,38.6993289 L64.4416107,38.6993289 L64.4416107,25 Z M69.1020134,32.366443 C68.519463,32.366443 68.0120805,32.5355705 67.5798657,32.9865772 C67.2604026,33.3248322 66.9785234,33.8134228 66.9785234,34.5275168 C66.9785234,35.2228188 67.2791946,35.7302013 67.5986577,36.0308725 C68.0308724,36.4442953 68.6322147,36.6510067 69.1395972,36.6510067 C69.6093959,36.6510067 70.1355704,36.4630872 70.5489932,36.0684564 C70.9436241,35.6926174 71.2067113,35.147651 71.2067113,34.5275168 C71.2067113,33.8510067 70.9436241,33.3060403 70.5489932,32.9302013 C70.1167785,32.5167785 69.6469798,32.366443 69.1020134,32.366443 Z M76.0174496,37.2899329 C76.0174496,36.3315436 76.7691274,35.5798658 77.7275167,35.5798658 C78.685906,35.5798658 79.4375838,36.3315436 79.4375838,37.2899329 C79.4375838,38.2483221 78.685906,39 77.7275167,39 C76.7691274,39 76.0174496,38.2483221 76.0174496,37.2899329 Z" id="manolab." fill="#212529"></path>
    </g>
</svg>