<svg width="66px" height="150px" viewBox="0 0 66 150" version="1.1" xmlns="http://www.w3.org/2000/svg" xmlns:xlink="http://www.w3.org/1999/xlink">
  <g id="Blog" stroke="none" stroke-width="1" fill="none" fill-rule="evenodd">
    <g id="Blog-Copy-3" transform="translate(-557.000000, -661.000000)">
      <g id="jiseung" transform="translate(557.000000, 661.000000)">
        <rect id="Rectangle-5" fill="#181818" x="0" y="0" width="65.625" height="150"></rect>
        <g id="hanja" transform="translate(16.875000, 15.000000)" fill="#FFFFFF">
          <path d="M31.7500597,32.7604655 L5.59609375,32.7604655 L5.59609375,29.8846951 L7.81121419,29.8846951 L7.81121419,24.9103895 L29.4183539,24.9103895 L29.4183539,29.8846951 L31.7500597,29.8846951 L31.7500597,32.7604655 Z M27.4364041,23.861122 L9.40454644,23.861122 L9.40454644,14.8840549 L27.4364041,14.8840549 L27.4364041,23.861122 Z M25.6876248,9.98747287 L29.8069716,10.8424316 C29.6126628,12.0082845 29.2629069,12.5134874 28.8354275,12.9409668 C27.941607,13.8347873 25.6876248,14.0290961 22.7341309,14.0290961 L19.8194987,14.0290961 C14.378852,14.0290961 12.0082845,13.9902344 12.0082845,11.6196669 L12.0082845,11.0756022 L7.96666124,11.269911 L7.85007595,9.05479058 L12.0082845,8.89934353 L12.0082845,7.61690538 L6.8785319,7.61690538 L6.8785319,12.7855197 C6.8785319,21.0630751 6.95625543,27.3975423 3.49755859,34.0429036 L0,31.1671332 C2.91463216,26.7368924 2.91463216,21.3351074 2.91463216,12.6689345 L2.91463216,4.74113498 L12.8243815,4.74113498 L12.8243815,0 L17.0603136,0 L17.0603136,1.32129991 L26.6980306,1.32129991 L26.6980306,3.76959093 L17.0603136,3.76959093 L17.0603136,4.74113498 L28.6022569,4.74113498 L31.3225803,6.29560547 C30.9339627,7.26714952 29.8458333,9.40454644 29.4183539,10.2595052 L25.4544542,9.40454644 C25.7653483,8.89934353 26.1928277,7.96666124 26.309413,7.61690538 L16.0887695,7.61690538 L16.0887695,8.70503472 L23.861122,8.35527886 L24.016569,10.5315375 L16.0887695,10.8812934 L16.0887695,11.1533257 C16.0887695,11.8139757 16.4773872,11.8528375 19.6251899,11.8528375 C24.1720161,11.8528375 24.9103895,11.5419434 25.2601454,11.0367405 C25.4155924,10.8035699 25.6099013,10.298367 25.6876248,9.98747287 Z M25.3378689,27.3975423 L23.200472,27.3975423 L23.200472,29.8846951 L25.3378689,29.8846951 L25.3378689,27.3975423 Z M11.7362522,27.3975423 L11.7362522,29.8846951 L13.8347873,29.8846951 L13.8347873,27.3975423 L11.7362522,27.3975423 Z M17.487793,27.3975423 L17.487793,29.8846951 L19.5474664,29.8846951 L19.5474664,27.3975423 L17.487793,27.3975423 Z M20.1692546,20.3635634 L20.1692546,21.4516927 L23.5502279,21.4516927 L23.5502279,20.3635634 L20.1692546,20.3635634 Z M23.5502279,17.2934842 L20.1692546,17.2934842 L20.1692546,18.3816135 L23.5502279,18.3816135 L23.5502279,17.2934842 Z M13.2518609,20.3635634 L13.2518609,21.4516927 L16.4385254,21.4516927 L16.4385254,20.3635634 L13.2518609,20.3635634 Z M13.2518609,17.2934842 L13.2518609,18.3816135 L16.4385254,18.3816135 L16.4385254,17.2934842 L13.2518609,17.2934842 Z" id="Combined-Shape"></path>
          <path d="M21.2185221,67.0986057 L18.1095812,69.5080349 C16.7882812,67.370638 15.2726725,65.2332411 13.4461697,63.5621853 L16.3219401,61.5025119 L2.99235569,61.5025119 L2.99235569,57.7717828 L13.6404785,57.7717828 L13.6404785,52.4477214 L1.24357639,52.4477214 L1.24357639,48.6781304 L13.6404785,48.6781304 L13.6404785,43.5872396 L17.9541341,43.5872396 L17.9541341,48.6781304 L30.389898,48.6781304 L30.389898,52.4477214 L17.9541341,52.4477214 L17.9541341,57.7717828 L28.5633952,57.7717828 L28.5633952,61.5025119 L16.4385254,61.5025119 C18.0707194,63.0569824 19.6251899,64.7669 21.2185221,67.0986057 Z M20.2469781,68.7696615 L24.4829102,70.1298231 C24.0554308,72.0340495 23.5113661,73.8994141 22.7729926,75.0264052 C22.1900662,75.8036404 21.2962457,76.7363227 16.4385254,76.7363227 C9.52113173,76.7363227 8.74389648,75.7647786 8.74389648,73.1221788 L8.74389648,63.1735677 L13.0186903,63.1735677 L13.0186903,71.5288466 C13.0186903,71.9174642 12.9798286,72.3060818 13.4073079,72.4615289 C13.7570638,72.6558377 14.4565755,72.772423 15.8944607,72.772423 C17.3323459,72.772423 18.1873047,72.6946994 18.6147841,72.5392524 C19.8583605,72.1894965 20.091531,69.9355143 20.2469781,68.7696615 Z M31.866645,72.5781141 L28.0581923,74.9486816 C26.309413,70.9459201 25.0269748,68.4587674 22.5786838,65.3886882 L26.1151042,63.4067383 C28.5245334,66.4768175 30.1955892,69.0805556 31.866645,72.5781141 Z M4.0027615,63.5621853 L7.85007595,64.9612088 C6.80080838,69.2748644 5.55723199,72.2283583 3.34211155,75.6481934 L0,72.92787 C2.37056749,69.818929 3.30324978,67.0208822 4.0027615,63.5621853 Z" id="Combined-Shape"></path>
          <path d="M24.1934702,120.615288 L20.0347716,120.615288 L20.0347716,111.598297 L13.1165626,111.598297 C11.911706,115.640397 9.19106198,118.438773 3.59430864,120.576422 L1.34006076,117.000719 C5.53762577,115.60153 7.7530073,113.930278 8.76353221,111.598297 L1.57325882,111.598297 L1.57325882,107.828262 L9.73519078,107.828262 C9.73519078,107.2064 9.81292346,106.46794 9.81292346,105.768346 C7.98620536,106.04041 6.12062091,106.273608 4.09957109,106.46794 L2.7392491,102.892236 C6.12062091,102.697905 10.5902503,102.192642 14.2825529,101.182117 L4.48823452,101.182117 L4.48823452,88.1618924 L28.3521689,88.1618924 L28.3521689,101.182117 L16.9643305,101.182117 L18.9853803,103.514098 C17.3529939,104.058227 15.7206075,104.485756 14.0493548,104.87442 C14.0104885,105.923811 13.9327558,106.89547 13.8550231,107.828262 L20.0347716,107.828262 L20.0347716,101.99831 L24.1934702,101.99831 L24.1934702,107.828262 L31.2671446,107.828262 L31.2671446,111.598297 L24.1934702,111.598297 L24.1934702,120.615288 Z M8.80239856,96.1683589 L8.80239856,97.761879 L24.0380049,97.761879 L24.0380049,96.1683589 L8.80239856,96.1683589 Z M8.80239856,91.5432642 L8.80239856,93.2145169 L24.0380049,93.2145169 L24.0380049,91.5432642 L8.80239856,91.5432642 Z" id="Combined-Shape"></path>
        </g>
      </g>
    </g>
  </g>
</svg>