<?xml version="1.0" encoding="UTF-8"?>
<svg width="52px" height="64px" viewBox="0 0 52 64" version="1.1" xmlns="http://www.w3.org/2000/svg" xmlns:xlink="http://www.w3.org/1999/xlink">
    <!-- Generator: Sketch 48.2 (47327) - http://www.bohemiancoding.com/sketch -->
    <title>toshihide</title>
    <desc>Created with Sketch.</desc>
    <defs></defs>
    <g id="Blog" stroke="none" stroke-width="1" fill="none" fill-rule="evenodd">
        <g id="toshihide" fill="#6C7F95">
            <path d="M0.890625,34.1140633 L0.890625,30.4753914 L0,30.4753914 L0,29.6023445 L0.9140625,29.6023445 L0.9140625,28.0378914 L1.8515625,28.0378914 L1.8515625,29.6023445 L3.421875,29.6023445 L3.421875,30.4753914 L1.86328125,30.4753914 L1.86328125,33.9910164 C1.86328125,34.3660183 1.9160151,34.6296875 2.02148438,34.782032 C2.12695365,34.9343765 2.33398283,35.0105476 2.64257813,35.0105476 L3.12304688,35.0105476 L3.12304688,35.9597664 L2.59570313,35.9597664 C1.99413762,35.9597664 1.5605482,35.8074242 1.29492188,35.5027351 C1.02929555,35.1980461 0.89453127,34.7351601 0.890625,34.1140633 Z M9.4921875,35.250782 C8.95702857,35.844535 8.27344166,36.141407 7.44140625,36.141407 C6.60937084,36.141407 5.92187771,35.844535 5.37890625,35.250782 C4.83202852,34.657029 4.55859375,33.8367247 4.55859375,32.7898445 C4.55859375,31.7429643 4.83984094,30.9187538 5.40234375,30.3171883 C5.96484656,29.719529 6.64648037,29.4207039 7.44726562,29.4207039 C8.25195715,29.4207039 8.92773164,29.7214821 9.47460938,30.3230476 C10.0214871,30.9246131 10.2949219,31.7468705 10.2949219,32.7898445 C10.2949219,33.8367247 10.0273464,34.657029 9.4921875,35.250782 Z M7.43554688,35.250782 C7.98242461,35.2546883 8.43359197,35.0378936 8.7890625,34.6003914 C9.14453303,34.1628892 9.32226562,33.5554734 9.32226562,32.7781258 C9.32226562,32.0007781 9.14648613,31.3933623 8.79492188,30.9558601 C8.44335762,30.518358 7.99219025,30.3015632 7.44140625,30.3054695 C6.88671598,30.3054695 6.4296893,30.5203111 6.0703125,30.9500008 C5.7109357,31.3835967 5.53125,31.9949187 5.53125,32.7839851 C5.53125,33.5730516 5.7109357,34.1824205 6.0703125,34.6121101 C6.43359557,35.0378935 6.88866914,35.250782 7.43554688,35.250782 Z M15.6328125,34.266407 C15.6328125,33.9539055 15.5156262,33.7175797 15.28125,33.5574226 C15.0468738,33.3972656 14.5449257,33.2117206 13.7753906,33.000782 C13.0058555,32.7898435 12.4609391,32.5476584 12.140625,32.2742195 C11.8203109,32.0046869 11.6601562,31.63555 11.6601562,31.1667976 C11.6601562,30.6980453 11.8554668,30.2898463 12.2460938,29.9421883 C12.6328144,29.5945303 13.1738246,29.4207039 13.8691406,29.4207039 C14.5644566,29.4207039 15.1152323,29.5867179 15.5214844,29.9187508 C15.9277364,30.2507837 16.2011712,30.6921855 16.3417969,31.2429695 L15.4863281,31.4714851 C15.2402331,30.6628873 14.701176,30.2585945 13.8691406,30.2585945 C13.4550761,30.2585945 13.1347668,30.3464843 12.9082031,30.5222664 C12.6816395,30.6980485 12.5703125,30.9128901 12.5742188,31.1667976 C12.5742188,31.4246114 12.6816396,31.6160158 12.8964844,31.7410164 C13.1113292,31.866017 13.6191366,32.0417965 14.4199219,32.2683601 C15.2207071,32.4949238 15.7753891,32.758593 16.0839844,33.0593758 C16.3925797,33.3601585 16.5488281,33.7644513 16.5527344,34.2722664 C16.5605469,34.7800814 16.3613302,35.2175771 15.9550781,35.5847664 C15.5488261,35.9519557 14.9335979,36.1375007 14.109375,36.141407 C13.2851521,36.141407 12.6503929,35.9226592 12.2050781,35.485157 C11.7597634,35.0476548 11.5019535,34.4851605 11.4316406,33.797657 L12.3574219,33.6218758 C12.4785162,34.7351626 13.066401,35.2898445 14.1210938,35.2859383 C14.6250025,35.2859383 15.0019519,35.1941423 15.2519531,35.0105476 C15.5019544,34.826953 15.6289062,34.5789086 15.6328125,34.266407 Z M18.1113281,35.9597664 L18.1113281,27.2000008 L19.0957031,27.2000008 L19.0957031,30.235157 L19.1191406,30.235157 C19.2949228,29.9968746 19.5527327,29.801564 19.8925781,29.6492195 C20.2324236,29.496875 20.5957012,29.4207039 20.9824219,29.4207039 C21.6621128,29.4207039 22.2128885,29.62578 22.6347656,30.0359383 C23.0566427,30.4460966 23.265625,31.0359344 23.2617188,31.8054695 L23.2617188,35.9597664 L22.2773438,35.9597664 L22.2773438,32.0691414 C22.2773438,30.9011668 21.7851612,30.3171883 20.8007812,30.3171883 C20.2812474,30.3171883 19.867189,30.4695305 19.5585938,30.7742195 C19.2499985,31.0789085 19.0957031,31.4753889 19.0957031,31.9636726 L19.0957031,35.9597664 L18.1113281,35.9597664 Z M25.2363281,28.313282 L25.2363281,27.2000008 L26.3671875,27.2000008 L26.3671875,28.313282 L25.2363281,28.313282 Z M25.3066406,35.9597664 L25.3066406,29.6023445 L26.2910156,29.6023445 L26.2910156,35.9597664 L25.3066406,35.9597664 Z M28.4003906,35.9597664 L28.4003906,27.2000008 L29.3847656,27.2000008 L29.3847656,30.235157 L29.4082031,30.235157 C29.5839853,29.9968746 29.8417952,29.801564 30.1816406,29.6492195 C30.5214861,29.496875 30.8847637,29.4207039 31.2714844,29.4207039 C31.9511753,29.4207039 32.501951,29.62578 32.9238281,30.0359383 C33.3457052,30.4460966 33.5546875,31.0359344 33.5507812,31.8054695 L33.5507812,35.9597664 L32.5664062,35.9597664 L32.5664062,32.0691414 C32.5664062,30.9011668 32.0742237,30.3171883 31.0898438,30.3171883 C30.5703099,30.3171883 30.1562515,30.4695305 29.8476562,30.7742195 C29.539061,31.0789085 29.3847656,31.4753889 29.3847656,31.9636726 L29.3847656,35.9597664 L28.4003906,35.9597664 Z M35.5253906,28.313282 L35.5253906,27.2000008 L36.65625,27.2000008 L36.65625,28.313282 L35.5253906,28.313282 Z M35.5957031,35.9597664 L35.5957031,29.6023445 L36.5800781,29.6023445 L36.5800781,35.9597664 L35.5957031,35.9597664 Z M42.9140625,35.9597664 L42.9140625,35.3503914 L42.890625,35.3503914 C42.7226554,35.5496111 42.4765641,35.7312499 42.1523438,35.8953133 C41.8281234,36.0593766 41.4531271,36.141407 41.0273438,36.141407 C40.1874958,36.141407 39.5175806,35.8367226 39.0175781,35.2273445 C38.5175756,34.6179665 38.2675781,33.8035215 38.2675781,32.7839851 C38.2675781,31.7605425 38.5292943,30.9441444 39.0527344,30.3347664 C39.5761745,29.7253883 40.2187462,29.4207039 40.9804688,29.4207039 C41.738285,29.4207039 42.3417946,29.6843731 42.7910156,30.2117195 L42.8203125,30.2117195 L42.8203125,27.2000008 L43.8046875,27.2000008 L43.8046875,35.9597664 L42.9140625,35.9597664 Z M42.8203125,33.8503914 L42.8203125,31.8816414 C42.8203125,31.4832019 42.6718765,31.1199243 42.375,30.7917976 C42.0781235,30.463671 41.6816431,30.3015632 41.1855469,30.3054695 C40.5527312,30.3054695 40.0722673,30.5222642 39.7441406,30.9558601 C39.416014,31.3933623 39.2519531,32.0027312 39.2519531,32.7839851 C39.2519531,33.565239 39.416014,34.1726548 39.7441406,34.6062508 C40.0722673,35.0398467 40.5527312,35.2546883 41.1855469,35.250782 C41.6503929,35.2546883 42.0390609,35.1160178 42.3515625,34.8347664 C42.6640641,34.553515 42.8203125,34.2253933 42.8203125,33.8503914 Z M48.3691406,36.141407 C47.5058551,36.141407 46.7988309,35.8347695 46.2480469,35.2214851 C45.6972629,34.6082008 45.4199219,33.7937558 45.4160156,32.7781258 C45.4160156,31.7585894 45.6855442,30.9441444 46.2246094,30.3347664 C46.7636746,29.7253883 47.4609332,29.4207039 48.3164062,29.4207039 C49.167973,29.4207039 49.8574192,29.7214821 50.3847656,30.3230476 C50.912112,30.9246131 51.1757812,31.7429643 51.1757812,32.7781258 L51.1757812,33.0652351 L46.4003906,33.0652351 C46.4082032,33.6746132 46.5781233,34.1921861 46.9101562,34.6179695 C47.2421892,35.0437529 47.7324186,35.2566414 48.3808594,35.2566414 C49.0293001,35.2566414 49.5195296,35.0417998 49.8515625,34.6121101 C50.0000007,34.4246092 50.1308588,34.2214862 50.2441406,34.0027351 L51.0351562,34.5183601 C50.7968738,34.9832062 50.4550804,35.3699211 50.0097656,35.6785164 C49.5644509,35.9871117 49.0175814,36.141407 48.3691406,36.141407 Z M46.4238281,32.2859383 L50.2089844,32.2859383 C50.1933593,31.7507793 50.0332046,31.2878933 49.7285156,30.8972664 C49.4238266,30.5066394 48.9589875,30.3113289 48.3339844,30.3113289 C47.7089812,30.3113289 47.2363297,30.5183581 46.9160156,30.9324226 C46.5957015,31.3542997 46.4316407,31.8054671 46.4238281,32.2859383 Z" id="Combined-Shape"></path>
        </g>
    </g>
</svg>