<?xml version="1.0" encoding="UTF-8"?>
<svg width="56px" height="64px" viewBox="0 0 56 64" version="1.1" xmlns="http://www.w3.org/2000/svg" xmlns:xlink="http://www.w3.org/1999/xlink">
    <g id="Blog" stroke="none" stroke-width="1" fill="none" fill-rule="evenodd">
        <g id="woohyeon" fill="#6C7F95">
            <path d="M1.40625,35.9597664 L0,29.6023445 L0.97265625,29.6023445 L1.9921875,34.3894539 L2.015625,34.3894539 L3.69726562,29.6023445 L4.58203125,29.6023445 L6.24023438,34.3894539 L6.26367188,34.3894539 L7.40625,29.6023445 L8.3671875,29.6023445 L6.84375,35.9597664 L5.94140625,35.9597664 L4.14257812,30.7625008 L4.11914062,30.7625008 L2.31445312,35.9597664 L1.40625,35.9597664 Z M14.4316406,35.250782 C13.8964817,35.844535 13.2128948,36.141407 12.3808594,36.141407 C11.548824,36.141407 10.8613308,35.844535 10.3183594,35.250782 C9.77148164,34.657029 9.49804688,33.8367247 9.49804688,32.7898445 C9.49804688,31.7429643 9.77929406,30.9187538 10.3417969,30.3171883 C10.9042997,29.719529 11.5859335,29.4207039 12.3867188,29.4207039 C13.1914103,29.4207039 13.8671848,29.7214821 14.4140625,30.3230476 C14.9609402,30.9246131 15.234375,31.7468705 15.234375,32.7898445 C15.234375,33.8367247 14.9667996,34.657029 14.4316406,35.250782 Z M12.375,35.250782 C12.9218777,35.2546883 13.3730451,35.0378936 13.7285156,34.6003914 C14.0839862,34.1628892 14.2617188,33.5554734 14.2617188,32.7781258 C14.2617188,32.0007781 14.0859393,31.3933623 13.734375,30.9558601 C13.3828107,30.518358 12.9316434,30.3015632 12.3808594,30.3054695 C11.8261691,30.3054695 11.3691424,30.5203111 11.0097656,30.9500008 C10.6503888,31.3835967 10.4707031,31.9949187 10.4707031,32.7839851 C10.4707031,33.5730516 10.6503888,34.1824205 11.0097656,34.6121101 C11.3730487,35.0378935 11.8281223,35.250782 12.375,35.250782 Z M21.3632812,35.250782 C20.8281223,35.844535 20.1445354,36.141407 19.3125,36.141407 C18.4804646,36.141407 17.7929715,35.844535 17.25,35.250782 C16.7031223,34.657029 16.4296875,33.8367247 16.4296875,32.7898445 C16.4296875,31.7429643 16.7109347,30.9187538 17.2734375,30.3171883 C17.8359403,29.719529 18.5175741,29.4207039 19.3183594,29.4207039 C20.1230509,29.4207039 20.7988254,29.7214821 21.3457031,30.3230476 C21.8925809,30.9246131 22.1660156,31.7468705 22.1660156,32.7898445 C22.1660156,33.8367247 21.8984402,34.657029 21.3632812,35.250782 Z M19.3066406,35.250782 C19.8535184,35.2546883 20.3046857,35.0378936 20.6601562,34.6003914 C21.0156268,34.1628892 21.1933594,33.5554734 21.1933594,32.7781258 C21.1933594,32.0007781 21.0175799,31.3933623 20.6660156,30.9558601 C20.3144514,30.518358 19.863284,30.3015632 19.3125,30.3054695 C18.7578097,30.3054695 18.300783,30.5203111 17.9414062,30.9500008 C17.5820295,31.3835967 17.4023438,31.9949187 17.4023438,32.7839851 C17.4023438,33.5730516 17.5820295,34.1824205 17.9414062,34.6121101 C18.3046893,35.0378935 18.7597629,35.250782 19.3066406,35.250782 Z M23.7832031,35.9597664 L23.7832031,27.2000008 L24.7675781,27.2000008 L24.7675781,30.235157 L24.7910156,30.235157 C24.9667978,29.9968746 25.2246077,29.801564 25.5644531,29.6492195 C25.9042986,29.496875 26.2675762,29.4207039 26.6542969,29.4207039 C27.3339878,29.4207039 27.8847635,29.62578 28.3066406,30.0359383 C28.7285177,30.4460966 28.9375,31.0359344 28.9335938,31.8054695 L28.9335938,35.9597664 L27.9492188,35.9597664 L27.9492188,32.0691414 C27.9492188,30.9011668 27.4570362,30.3171883 26.4726562,30.3171883 C25.9531224,30.3171883 25.539064,30.4695305 25.2304688,30.7742195 C24.9218735,31.0789085 24.7675781,31.4753889 24.7675781,31.9636726 L24.7675781,35.9597664 L23.7832031,35.9597664 Z M31.2421875,38.6609383 L32.5195312,35.2859383 L30.1289062,29.6023445 L31.1601562,29.6023445 L32.9589844,33.9910164 L32.9824219,33.9910164 L34.6054688,29.6023445 L35.6132812,29.6023445 L32.1914062,38.6609383 L31.2421875,38.6609383 Z M39.3984375,36.141407 C38.5351519,36.141407 37.8281278,35.8347695 37.2773438,35.2214851 C36.7265597,34.6082008 36.4492188,33.7937558 36.4453125,32.7781258 C36.4453125,31.7585894 36.7148411,30.9441444 37.2539062,30.3347664 C37.7929714,29.7253883 38.4902301,29.4207039 39.3457031,29.4207039 C40.1972699,29.4207039 40.8867161,29.7214821 41.4140625,30.3230476 C41.9414089,30.9246131 42.2050781,31.7429643 42.2050781,32.7781258 L42.2050781,33.0652351 L37.4296875,33.0652351 C37.4375,33.6746132 37.6074202,34.1921861 37.9394531,34.6179695 C38.271486,35.0437529 38.7617155,35.2566414 39.4101562,35.2566414 C40.058597,35.2566414 40.5488265,35.0417998 40.8808594,34.6121101 C41.0292976,34.4246092 41.1601557,34.2214862 41.2734375,34.0027351 L42.0644531,34.5183601 C41.8261707,34.9832062 41.4843772,35.3699211 41.0390625,35.6785164 C40.5937478,35.9871117 40.0468782,36.141407 39.3984375,36.141407 Z M37.453125,32.2859383 L41.2382812,32.2859383 C41.2226562,31.7507793 41.0625015,31.2878933 40.7578125,30.8972664 C40.4531235,30.5066394 39.9882844,30.3113289 39.3632812,30.3113289 C38.7382781,30.3113289 38.2656266,30.5183581 37.9453125,30.9324226 C37.6249984,31.3542997 37.4609375,31.8054671 37.453125,32.2859383 Z M48.3339844,35.250782 C47.7988254,35.844535 47.1152385,36.141407 46.2832031,36.141407 C45.4511677,36.141407 44.7636746,35.844535 44.2207031,35.250782 C43.6738254,34.657029 43.4003906,33.8367247 43.4003906,32.7898445 C43.4003906,31.7429643 43.6816378,30.9187538 44.2441406,30.3171883 C44.8066434,29.719529 45.4882772,29.4207039 46.2890625,29.4207039 C47.093754,29.4207039 47.7695285,29.7214821 48.3164062,30.3230476 C48.863284,30.9246131 49.1367188,31.7468705 49.1367188,32.7898445 C49.1367188,33.8367247 48.8691433,34.657029 48.3339844,35.250782 Z M46.2773438,35.250782 C46.8242215,35.2546883 47.2753888,35.0378936 47.6308594,34.6003914 C47.9863299,34.1628892 48.1640625,33.5554734 48.1640625,32.7781258 C48.1640625,32.0007781 47.988283,31.3933623 47.6367188,30.9558601 C47.2851545,30.518358 46.8339871,30.3015632 46.2832031,30.3054695 C45.7285129,30.3054695 45.2714862,30.5203111 44.9121094,30.9500008 C44.5527326,31.3835967 44.3730469,31.9949187 44.3730469,32.7839851 C44.3730469,33.5730516 44.5527326,34.1824205 44.9121094,34.6121101 C45.2753924,35.0378935 45.730466,35.250782 46.2773438,35.250782 Z M50.7539062,35.9597664 L50.7539062,29.6023445 L51.7148438,29.6023445 L51.7148438,30.2117195 L51.7382812,30.2117195 C51.9140634,29.9812496 52.166014,29.7917984 52.4941406,29.6433601 C52.8222673,29.4949219 53.1660138,29.4207039 53.5253906,29.4207039 C54.2128941,29.4207039 54.767576,29.6316393 55.1894531,30.0535164 C55.6113302,30.4753935 55.8203125,31.0515596 55.8164062,31.782032 L55.8164062,35.9597664 L54.84375,35.9597664 L54.84375,32.0984383 C54.84375,30.9148386 54.3574267,30.3210945 53.3847656,30.3171883 C52.8886694,30.3171883 52.4902359,30.4578119 52.1894531,30.7390633 C51.8886704,31.0203147 51.7382812,31.4089827 51.7382812,31.9050789 L51.7382812,35.9597664 L50.7539062,35.9597664 Z" id="Combined-Shape"></path>
        </g>
    </g>
</svg>